# xmcd
#
# Track frame offsets:
# 150
# 12580
# 27138
# 40393
# 54870
# 72135
# 90088
# 104748
# 120815
# 140220
# 159575
#
# Disc length: 2405 seconds
#
#
# Revision: 0
# Processed by: cddbd v1.5.2PL0 Copyright (c) Steve Scherf et al.
# Submitted via: Nero 7, 11, 10, 0 
#
DISCID=8809630b
DTITLE=The Mike Reilly Band - Take All My Money
DYEAR=1992
DGENRE=Blues
TTITLE0=All My Money
TTITLE1=Everything That You Do
TTITLE2=Hitchhike
TTITLE3=Forevers
TTITLE4=Best I Ever Knew
TTITLE5=Palace Of The King
TTITLE6=Home Boys
TTITLE7=Second Hand Heart
TTITLE8=Loneliness Will Wear You Down
TTITLE9=Ain't Knockin'
TTITLE10=Skunked
EXTD=
EXTT0=All My Money
EXTT1=Everything That You Do
EXTT2=Hitchhike
EXTT3=Forevers
EXTT4=Best I Ever Knew
EXTT5=Palace Of The King
EXTT6=Home Boys
EXTT7=Second Hand Heart
EXTT8=Loneliness Will Wear You Down
EXTT9=Ain't Knockin'
EXTT10=Skunked
PLAYORDER=
